<svg width="1000mm" height="1000mm" viewBox="0 0 1000 1000" xmlns="http://www.w3.org/2000/svg">
  <!-- Holzplatte Hintergrund -->
  <rect x="0" y="0" width="1000" height="1000" fill="#c8b693"/>

  <!-- Oben Linkss -->
  <!-- Asphalt -->
  <rect x="70" y="0" width="360" height="500" fill="#2f2f2f"/>

  <!-- Außenlinien -->
  <line x1="80" y1="0" x2="80" y2="500"
        stroke="white" stroke-width="10"/>
  <line x1="420" y1="0" x2="420" y2="500"
        stroke="white" stroke-width="10"/>

  <!-- Mittellinie (gestrichelt) -->
  <line x1="250" y1="20" x2="250" y2="105"
        stroke="white" stroke-width="10"/>
  <line x1="250" y1="145" x2="250" y2="230"
        stroke="white" stroke-width="10"/>
  <line x1="250" y1="270" x2="250" y2="355"
        stroke="white" stroke-width="10"/>
  <line x1="250" y1="395" x2="250" y2="480"
        stroke="white" stroke-width="10"/>

  <!-- Unten Rechts -->
  <!-- Asphalt -->
  <rect x="500" y="570" width="500" height="360" fill="#2f2f2f"/>

  <!-- Außenlinien -->
  <line x1="500" y1="580" x2="1000" y2="580" stroke="white" stroke-width="10"/>
  <line x1="500" y1="920" x2="1000" y2="920" stroke="white" stroke-width="10"/>

  <!-- Mittellinie (gestrichelt) -->
  <line x1="520" y1="750" x2="605" y2="750" stroke="white" stroke-width="10"/>
  <line x1="645" y1="750" x2="730" y2="750" stroke="white" stroke-width="10"/>
  <line x1="770" y1="750" x2="855" y2="750" stroke="white" stroke-width="10"/>
  <line x1="895" y1="750" x2="980" y2="750" stroke="white" stroke-width="10"/>

  <!-- Unten Links -->
  <!-- linke Außenlinie -->
  <path d="M80 500 C80 800, 300 920, 500 920"
        stroke="white" fill="none" stroke-width="10"/>

  <!-- rechte Außenlinie -->
  <path d="M420 500 C420 550, 470 580, 500 580"
        stroke="white" fill="none" stroke-width="10"/>

  <!-- Mittellinie (noch nicht gestrichelt) -->
  <path d="M250 500 C250 650, 350 750, 500 750"
        stroke="white" fill="none" stroke-width="10"/>

  <!-- Raster -->
  <line x1="0" y1="0" x2="0" y2="1000"
        stroke="red" stroke-width="1"/>
  <line x1="500" y1="0" x2="500" y2="1000"
        stroke="red" stroke-width="1"/>
  <line x1="1000" y1="0" x2="1000" y2="1000"
        stroke="red" stroke-width="1"/>

  <line x1="0" y1="0" x2="1000" y2="0"
        stroke="red" stroke-width="1"/>
  <line x1="0" y1="500" x2="1000" y2="500"
        stroke="red" stroke-width="1"/>
  <line x1="0" y1="1000" x2="1000" y2="1000"
        stroke="red" stroke-width="1"/>
</svg>
