<svg width="500mm" height="500mm" viewBox="0 0 500 500" xmlns="http://www.w3.org/2000/svg">
  <!-- Holzplatte Hintergrund -->
  <rect x="0" y="0" width="500" height="500" fill="#c8b693"/>

  <!-- Asphalt -->
  <path d="M70,0 
    L70, 60
    Q70,70 60, 70
    L0, 70
    L0, 430
    Q70, 430 70, 500
    L430, 500
    Q430, 430 500, 430
    L500, 70
    Q430, 70 430, 0" 
    fill="#2f2f2f"/>

  <!-- Außenlinien -->
  <path d="M80 0 L 80 60 Q80 80, 60 80 L0 80"
      stroke="white" fill="none" stroke-width="10"/>
  <path d="M0 420 L60 420 Q80 420, 80 440 L80 500"
      stroke="white" fill="none" stroke-width="10"/>
  <path d="M420 500 L420 440 Q420 420, 440 420 L500 420"
      stroke="white" fill="none" stroke-width="10"/>
  <path d="M420 0 L420 60 Q420 80, 440 80 L500 80"
      stroke="white" fill="none" stroke-width="10"/>
</svg>
