<svg width="500mm" height="500mm" viewBox="0 0 500 500" xmlns="http://www.w3.org/2000/svg">
  <!-- Holzplatte Hintergrund -->
  <rect x="0" y="0" width="500" height="500" fill="#c8b693"/>

  <!-- Asphalt -->
  <path d="M70,0 
    L70, 60
    Q70,70 60, 70
    L0, 70
    L0, 430
    L60, 430
    Q70, 430 70, 440
    L70, 500
    L430, 500
    L430, 440
    Q430, 430 440, 430
    L500, 430
    L500, 70
    L440, 70
    Q430, 70 430, 60
    L430, 0" 
    fill="#2f2f2f"/>

  <!-- Außenlinien -->
  <path d="M80 0 L 80 60 Q80 80, 60 80 L0 80"
      stroke="white" fill="none" stroke-width="10"/>
  <path d="M0 420 L60 420 Q80 420, 80 440 L80 500"
      stroke="white" fill="none" stroke-width="10"/>
  <path d="M420 500 L420 440 Q420 420, 440 420 L500 420"
      stroke="white" fill="none" stroke-width="10"/>
  <path d="M420 0 L420 60 Q420 80, 440 80 L500 80"
      stroke="white" fill="none" stroke-width="10"/>

<!-- Zebrastreifen west -->
  <line x1="10" y1="110" x2="75" y2="110" stroke="white" stroke-width="20"/>
  <line x1="10" y1="150" x2="75" y2="150" stroke="white" stroke-width="20"/>
  <line x1="10" y1="190" x2="75" y2="190" stroke="white" stroke-width="20"/>
  <line x1="10" y1="230" x2="75" y2="230" stroke="white" stroke-width="20"/>
  <line x1="10" y1="270" x2="75" y2="270" stroke="white" stroke-width="20"/>
  <line x1="10" y1="310" x2="75" y2="310" stroke="white" stroke-width="20"/>
  <line x1="10" y1="350" x2="75" y2="350" stroke="white" stroke-width="20"/>
  <line x1="10" y1="390" x2="75" y2="390" stroke="white" stroke-width="20"/>

  <!-- Zebrastreifen ost -->
  <line x1="425" y1="110" x2="490" y2="110" stroke="white" stroke-width="20"/>
  <line x1="425" y1="150" x2="490" y2="150" stroke="white" stroke-width="20"/>
  <line x1="425" y1="190" x2="490" y2="190" stroke="white" stroke-width="20"/>
  <line x1="425" y1="230" x2="490" y2="230" stroke="white" stroke-width="20"/>
  <line x1="425" y1="270" x2="490" y2="270" stroke="white" stroke-width="20"/>
  <line x1="425" y1="310" x2="490" y2="310" stroke="white" stroke-width="20"/>
  <line x1="425" y1="350" x2="490" y2="350" stroke="white" stroke-width="20"/>
  <line x1="425" y1="390" x2="490" y2="390" stroke="white" stroke-width="20"/>

  <!-- Zebrastreifen nord -->
  <line x1="110" y1="10" x2="110" y2="75" stroke="white" stroke-width="20"/>
  <line x1="150" y1="10" x2="150" y2="75" stroke="white" stroke-width="20"/>
  <line x1="190" y1="10" x2="190" y2="75" stroke="white" stroke-width="20"/>
  <line x1="230" y1="10" x2="230" y2="75" stroke="white" stroke-width="20"/>
  <line x1="270" y1="10" x2="270" y2="75" stroke="white" stroke-width="20"/>
  <line x1="310" y1="10" x2="310" y2="75" stroke="white" stroke-width="20"/>
  <line x1="350" y1="10" x2="350" y2="75" stroke="white" stroke-width="20"/>
  <line x1="390" y1="10" x2="390" y2="75" stroke="white" stroke-width="20"/>

  <!-- Zebrastreifen sued -->
  <line x1="110" y1="425" x2="110" y2="490" stroke="white" stroke-width="20"/>
  <line x1="150" y1="425" x2="150" y2="490" stroke="white" stroke-width="20"/>
  <line x1="190" y1="425" x2="190" y2="490" stroke="white" stroke-width="20"/>
  <line x1="230" y1="425" x2="230" y2="490" stroke="white" stroke-width="20"/>
  <line x1="270" y1="425" x2="270" y2="490" stroke="white" stroke-width="20"/>
  <line x1="310" y1="425" x2="310" y2="490" stroke="white" stroke-width="20"/>
  <line x1="350" y1="425" x2="350" y2="490" stroke="white" stroke-width="20"/>
  <line x1="390" y1="425" x2="390" y2="490" stroke="white" stroke-width="20"/>
</svg>
